<svg width="22" height="22" viewBox="0 0 22 22" fill="none" xmlns="http://www.w3.org/2000/svg">
<path d="M14.5312 13C16.4237 13.0001 18.1539 14.0683 19.0019 15.7598L20.8925 19.5498C21.0485 19.8593 21.0338 20.228 20.8524 20.5234C20.6711 20.8187 20.3494 20.9989 20.0028 21H1.99698C1.6504 20.9989 1.32871 20.8187 1.14737 20.5234C0.966006 20.228 0.951314 19.8593 1.10733 19.5498L2.99795 15.7598C3.84596 14.0683 5.57608 13.0001 7.46866 13H14.5312ZM7.46866 15C6.33291 15.0016 5.2953 15.6443 4.78799 16.6602L3.61807 19H18.3817L17.2118 16.6602C16.7045 15.6443 15.667 15.0016 14.5312 15H7.46866ZM10.9999 1C13.7622 1 16.0019 3.23858 16.0019 6C16.0019 8.76142 13.7622 11 10.9999 11C8.23766 11 5.99795 8.76142 5.99795 6C5.99795 3.23858 8.23766 1.00001 10.9999 1ZM10.9999 3C9.3426 3.00005 7.99893 4.34318 7.99893 6C7.99894 7.65682 9.3426 8.99995 10.9999 9C12.6573 9 14.0009 7.65685 14.0009 6C14.0009 4.34315 12.6573 3 10.9999 3Z" fill="black"/>
<path d="M14.5312 13L14.5312 12.5H14.5312V13ZM19.0019 15.7598L19.4493 15.5366L19.4488 15.5357L19.0019 15.7598ZM20.8925 19.5498L20.4451 19.773L20.446 19.7749L20.8925 19.5498ZM20.8524 20.5234L21.2785 20.7851L21.2785 20.7851L20.8524 20.5234ZM20.0028 21V21.5L20.0045 21.5L20.0028 21ZM1.99698 21L1.99536 21.5H1.99698V21ZM1.14737 20.5234L0.721273 20.7851L0.721302 20.7851L1.14737 20.5234ZM1.10733 19.5498L1.55382 19.7749L1.55475 19.773L1.10733 19.5498ZM2.99795 15.7598L2.55098 15.5357L2.55053 15.5366L2.99795 15.7598ZM7.46866 13V12.5H7.46862L7.46866 13ZM7.46866 15V14.5L7.46794 14.5L7.46866 15ZM4.78799 16.6602L5.23521 16.8838L5.23532 16.8835L4.78799 16.6602ZM3.61807 19L3.17086 18.7764L2.80906 19.5H3.61807V19ZM18.3817 19V19.5H19.1908L18.829 18.7764L18.3817 19ZM17.2118 16.6602L16.7645 16.8835L16.7646 16.8838L17.2118 16.6602ZM14.5312 15L14.5319 14.5H14.5312V15ZM10.9999 1V0.5H10.9999L10.9999 1ZM10.9999 11L10.9999 11.5H10.9999V11ZM10.9999 3V2.5H10.9999L10.9999 3ZM7.99893 6H7.49893V6L7.99893 6ZM10.9999 9L10.9999 9.5H10.9999V9ZM14.0009 6L14.5009 6V6H14.0009ZM14.5312 13L14.5311 13.5C16.2345 13.5001 17.7917 14.4615 18.5549 15.9839L19.0019 15.7598L19.4488 15.5357C18.516 13.6751 16.613 12.5001 14.5312 12.5L14.5312 13ZM19.0019 15.7598L18.5544 15.983L20.4451 19.773L20.8925 19.5498L21.3399 19.3266L19.4493 15.5366L19.0019 15.7598ZM20.8925 19.5498L20.446 19.7749C20.5244 19.9304 20.5166 20.1149 20.4264 20.2618L20.8524 20.5234L21.2785 20.7851C21.5511 20.3412 21.5726 19.7883 21.339 19.3247L20.8925 19.5498ZM20.8524 20.5234L20.4264 20.2618C20.3359 20.409 20.1751 20.4994 20.0012 20.5L20.0028 21L20.0045 21.5C20.5238 21.4983 21.0063 21.2284 21.2785 20.7851L20.8524 20.5234ZM20.0028 21V20.5H1.99698V21V21.5H20.0028V21ZM1.99698 21L1.99859 20.5C1.82475 20.4994 1.66387 20.409 1.57344 20.2618L1.14737 20.5234L0.721302 20.7851C0.99354 21.2284 1.47605 21.4983 1.99536 21.5L1.99698 21ZM1.14737 20.5234L1.57347 20.2618C1.48325 20.1149 1.47544 19.9304 1.55382 19.7749L1.10733 19.5498L0.660844 19.3247C0.427189 19.7883 0.448764 20.3412 0.721273 20.7851L1.14737 20.5234ZM1.10733 19.5498L1.55475 19.773L3.44538 15.983L2.99795 15.7598L2.55053 15.5366L0.659909 19.3266L1.10733 19.5498ZM2.99795 15.7598L3.44493 15.9839C4.20815 14.4615 5.76529 13.5001 7.46869 13.5L7.46866 13L7.46862 12.5C5.38687 12.5001 3.48378 13.6751 2.55098 15.5357L2.99795 15.7598ZM7.46866 13V13.5H14.5312V13V12.5H7.46866V13ZM7.46866 15L7.46794 14.5C6.143 14.5019 4.93253 15.2516 4.34067 16.4368L4.78799 16.6602L5.23532 16.8835C5.65808 16.037 6.52282 15.5014 7.46938 15.5L7.46866 15ZM4.78799 16.6602L4.34078 16.4365L3.17086 18.7764L3.61807 19L4.06529 19.2236L5.23521 16.8838L4.78799 16.6602ZM3.61807 19V19.5H18.3817V19V18.5H3.61807V19ZM18.3817 19L18.829 18.7764L17.659 16.4365L17.2118 16.6602L16.7646 16.8838L17.9345 19.2236L18.3817 19ZM17.2118 16.6602L17.6591 16.4368C17.0673 15.2516 15.8569 14.5019 14.5319 14.5L14.5312 15L14.5305 15.5C15.477 15.5013 16.3417 16.0369 16.7645 16.8835L17.2118 16.6602ZM14.5312 15V14.5H7.46866V15V15.5H14.5312V15ZM10.9999 1V1.5C13.4862 1.5 15.5019 3.51492 15.5019 6H16.0019H16.5019C16.5019 2.96223 14.0381 0.5 10.9999 0.5V1ZM16.0019 6H15.5019C15.5019 8.48508 13.4862 10.5 10.9999 10.5V11V11.5C14.0381 11.5 16.5019 9.03777 16.5019 6H16.0019ZM10.9999 11L10.9999 10.5C8.5136 10.5 6.49795 8.48507 6.49795 6H5.99795H5.49795C5.49795 9.03776 7.96172 11.5 10.9999 11.5L10.9999 11ZM5.99795 6H6.49795C6.49795 3.51493 8.5136 1.50001 10.9999 1.5L10.9999 1L10.9999 0.5C7.96172 0.500016 5.49795 2.96224 5.49795 6H5.99795ZM10.9999 3L10.9999 2.5C9.06663 2.50006 7.49893 4.06686 7.49893 6H7.99893H8.49893C8.49893 4.6195 9.61857 3.50005 10.9999 3.5L10.9999 3ZM7.99893 6L7.49893 6C7.49894 7.93313 9.06663 9.49994 10.9999 9.5L10.9999 9L10.9999 8.5C9.61858 8.49995 8.49894 7.3805 8.49893 6L7.99893 6ZM10.9999 9V9.5C12.9332 9.5 14.5009 7.93315 14.5009 6L14.0009 6L13.5009 6C13.5009 7.38055 12.3813 8.5 10.9999 8.5V9ZM14.0009 6H14.5009C14.5009 4.06685 12.9332 2.5 10.9999 2.5V3V3.5C12.3813 3.5 13.5009 4.61945 13.5009 6H14.0009Z" fill="white"/>
</svg>
