<svg width="20" height="20" viewBox="0 0 20 20" fill="none" xmlns="http://www.w3.org/2000/svg">
<path d="M8.5 1C8.77614 1 9 1.22386 9 1.5V2.5C9 2.77614 8.77614 3 8.5 3H3V17H8.5C8.77614 17 9 17.2239 9 17.5V18.5C9 18.7761 8.77614 19 8.5 19H3C1.89543 19 1 18.1046 1 17V3C1 1.89543 1.89543 1 3 1H8.5ZM13.2852 4.00195C13.4184 4.00199 13.5458 4.05577 13.6396 4.15039L18.7803 9.28027C18.9189 9.42186 18.9976 9.61144 19 9.80957V10.1904C18.9997 10.389 18.9207 10.5793 18.7803 10.7197L13.6396 15.8496C13.5458 15.9442 13.4184 15.998 13.2852 15.998C13.1518 15.998 13.0236 15.9443 12.9297 15.8496L12.2197 15.1504C12.1251 15.0565 12.0723 14.9282 12.0723 14.7949C12.0723 14.6618 12.1253 14.5343 12.2197 14.4404L15.6699 11H5.5C5.22386 11 5 10.7761 5 10.5V9.5C5 9.22386 5.22386 9 5.5 9H15.6699L12.2197 5.55957C12.1259 5.46744 12.0732 5.34149 12.0732 5.20996C12.0733 5.07843 12.1259 4.95248 12.2197 4.86035L12.9297 4.15039C13.0236 4.05573 13.1518 4.00195 13.2852 4.00195Z" fill="black"/>
<path d="M3 3V2.5H2.5V3H3ZM3 17H2.5V17.5H3V17ZM13.2852 4.00195L13.2853 3.50195H13.2852V4.00195ZM13.6396 4.15039L13.2846 4.5025L13.2865 4.50431L13.6396 4.15039ZM18.7803 9.28027L19.1376 8.93047L19.1335 8.92635L18.7803 9.28027ZM19 9.80957H19.5L19.5 9.80349L19 9.80957ZM19 10.1904L19.5 10.1912V10.1904H19ZM18.7803 10.7197L19.1335 11.0736L19.1338 11.0733L18.7803 10.7197ZM13.6396 15.8496L13.2865 15.4957L13.2846 15.4975L13.6396 15.8496ZM13.2852 15.998V16.498H13.2853L13.2852 15.998ZM12.9297 15.8496L13.2847 15.4975L13.2805 15.4934L12.9297 15.8496ZM12.2197 15.1504L11.8676 15.5054L11.8689 15.5066L12.2197 15.1504ZM12.0723 14.7949L11.5723 14.7948V14.7949H12.0723ZM12.2197 14.4404L12.5722 14.7951L12.5728 14.7945L12.2197 14.4404ZM15.6699 11L16.023 11.3541L16.8795 10.5H15.6699V11ZM15.6699 9V9.5H16.8795L16.023 8.64595L15.6699 9ZM12.2197 5.55957L12.5728 5.20551L12.57 5.20278L12.2197 5.55957ZM12.0732 5.20996L11.5732 5.20992V5.20996H12.0732ZM12.2197 4.86035L12.57 5.2172L12.5733 5.2139L12.2197 4.86035ZM12.9297 4.15039L13.2832 4.50395L13.2847 4.50249L12.9297 4.15039ZM8.5 1V1.5H9H9.5C9.5 0.947715 9.05229 0.5 8.5 0.5V1ZM9 1.5H8.5V2.5H9H9.5V1.5H9ZM9 2.5H8.5V3V3.5C9.05229 3.5 9.5 3.05228 9.5 2.5H9ZM8.5 3V2.5H3V3V3.5H8.5V3ZM3 3H2.5V17H3H3.5V3H3ZM3 17V17.5H8.5V17V16.5H3V17ZM8.5 17V17.5H9H9.5C9.5 16.9477 9.05229 16.5 8.5 16.5V17ZM9 17.5H8.5V18.5H9H9.5V17.5H9ZM9 18.5H8.5V19V19.5C9.05229 19.5 9.5 19.0523 9.5 18.5H9ZM8.5 19V18.5H3V19V19.5H8.5V19ZM3 19V18.5C2.17157 18.5 1.5 17.8284 1.5 17H1H0.5C0.5 18.3807 1.61929 19.5 3 19.5V19ZM1 17H1.5V3H1H0.5V17H1ZM1 3H1.5C1.5 2.17157 2.17157 1.5 3 1.5V1V0.5C1.61929 0.5 0.5 1.61929 0.5 3H1ZM3 1V1.5H8.5V1V0.5H3V1ZM13.2852 4.00195L13.285 4.50195L13.2846 4.50249L13.6396 4.15039L13.9946 3.79829C13.8082 3.6103 13.5536 3.50204 13.2853 3.50195L13.2852 4.00195ZM13.6396 4.15039L13.2865 4.50431L18.4271 9.6342L18.7803 9.28027L19.1335 8.92635L13.9928 3.79647L13.6396 4.15039ZM18.7803 9.28027L18.423 9.63006C18.4716 9.6797 18.4992 9.74618 18.5 9.81565L19 9.80957L19.5 9.80349C19.496 9.4767 19.3662 9.16402 19.1376 8.93049L18.7803 9.28027ZM19 9.80957H18.5V10.1904H19H19.5V9.80957H19ZM19 10.1904L18.5 10.1897C18.4999 10.2559 18.4736 10.3193 18.4268 10.3661L18.7803 10.7197L19.1338 11.0733C19.3678 10.8393 19.4995 10.5221 19.5 10.1912L19 10.1904ZM18.7803 10.7197L18.4271 10.3658L13.2865 15.4957L13.6396 15.8496L13.9928 16.2035L19.1335 11.0736L18.7803 10.7197ZM13.6396 15.8496L13.2846 15.4975L13.285 15.498L13.2852 15.998L13.2853 16.498C13.5536 16.498 13.8082 16.3897 13.9946 16.2017L13.6396 15.8496ZM13.2852 15.998V15.498L13.2847 15.4975L12.9297 15.8496L12.5747 16.2017C12.7618 16.3904 13.0176 16.498 13.2852 16.498V15.998ZM12.9297 15.8496L13.2805 15.4934L12.5706 14.7942L12.2197 15.1504L11.8689 15.5066L12.5788 16.2058L12.9297 15.8496ZM12.2197 15.1504L12.5718 14.7954L12.5723 14.7949H12.0723H11.5723C11.5723 15.0599 11.6772 15.3165 11.8676 15.5054L12.2197 15.1504ZM12.0723 14.7949L12.5723 14.795L12.5722 14.7951L12.2197 14.4404L11.8673 14.0858C11.6783 14.2735 11.5723 14.5287 11.5723 14.7948L12.0723 14.7949ZM12.2197 14.4404L12.5728 14.7945L16.023 11.3541L15.6699 11L15.3169 10.6459L11.8667 14.0864L12.2197 14.4404ZM15.6699 11V10.5H5.5V11V11.5H15.6699V11ZM5.5 11V10.5H5H4.5C4.5 11.0523 4.94772 11.5 5.5 11.5V11ZM5 10.5H5.5V9.5H5H4.5V10.5H5ZM5 9.5H5.5V9V8.5C4.94772 8.5 4.5 8.94772 4.5 9.5H5ZM5.5 9V9.5H15.6699V9V8.5H5.5V9ZM15.6699 9L16.023 8.64595L12.5728 5.20552L12.2197 5.55957L11.8667 5.91362L15.3169 9.35405L15.6699 9ZM12.2197 5.55957L12.57 5.20278C12.5723 5.20505 12.5732 5.20783 12.5732 5.20996H12.0732H11.5732C11.5732 5.47514 11.6794 5.72982 11.8694 5.91636L12.2197 5.55957ZM12.0732 5.20996L12.5732 5.21C12.5732 5.21203 12.5724 5.21484 12.57 5.21718L12.2197 4.86035L11.8695 4.50352C11.6794 4.69012 11.5733 4.94484 11.5732 5.20992L12.0732 5.20996ZM12.2197 4.86035L12.5733 5.2139L13.2832 4.50394L12.9297 4.15039L12.5761 3.79684L11.8662 4.5068L12.2197 4.86035ZM12.9297 4.15039L13.2847 4.50249L13.2852 4.50195V4.00195V3.50195C13.0176 3.50195 12.7618 3.6096 12.5747 3.79829L12.9297 4.15039Z" fill="white"/>
</svg>
