<svg width="25" height="19" viewBox="0 0 25 19" fill="none" xmlns="http://www.w3.org/2000/svg">
<path d="M8.05473 15.1624H8.05588C8.05683 15.1624 8.05778 15.1622 8.05874 15.1622H21.3379C21.6648 15.1622 21.9522 14.9454 22.0421 14.631L24.9718 4.37713C25.0349 4.15607 24.9907 3.91841 24.8524 3.73492C24.7139 3.55144 24.4974 3.44348 24.2676 3.44348H6.36558L5.84202 1.08733C5.76744 0.752212 5.47028 0.513794 5.12695 0.513794H0.732422C0.327873 0.513794 0 0.841667 0 1.24622C0 1.65076 0.327873 1.97864 0.732422 1.97864H4.53949C4.63219 2.39616 7.04498 13.2539 7.18384 13.8786C6.40545 14.2169 5.85937 14.993 5.85937 15.8947C5.85937 17.1062 6.84509 18.0919 8.05664 18.0919H21.3379C21.7424 18.0919 22.0703 17.764 22.0703 17.3595C22.0703 16.9549 21.7424 16.6271 21.3379 16.6271H8.05664C7.65285 16.6271 7.32422 16.2984 7.32422 15.8947C7.32422 15.4914 7.65171 15.1634 8.05473 15.1624ZM23.2965 4.90833L20.7853 13.6974H8.6441L6.69098 4.90833H23.2965Z" fill="black"/>
</svg>
